<svg id="Layer_1" data-name="Layer 1" xmlns="http://www.w3.org/2000/svg" viewBox="0 0 440 283"><defs><style>.cls-1{fill:none;stroke:#000;stroke-linecap:round;stroke-miterlimit:10;stroke-width:8px;}</style></defs><g id="Layer_1-2" data-name="Layer 1"><polygon points="109.77 282.3 219.77 282.3 161.88 238.88 109.77 282.3"/><path d="M209.16,65.3a25.9,25.9,0,1,0,25.9,25.9h0A25.91,25.91,0,0,0,209.16,65.3Zm0,43.16a17.27,17.27,0,1,1,17.27-17.27h0a17.26,17.26,0,0,1-17.26,17.26Z"/><path d="M209.16,80.41a10.82,10.82,0,1,0,.05,0Zm0,15.1a4.32,4.32,0,1,1,4.32-4.32h0a4.31,4.31,0,0,1-4.31,4.31Z"/><path d="M271.16,65.3a25.9,25.9,0,1,0,25.9,25.9h0A25.91,25.91,0,0,0,271.16,65.3Zm0,43.16a17.27,17.27,0,1,1,17.27-17.27h0a17.26,17.26,0,0,1-17.26,17.26Z"/><path d="M271.16,80.41A10.79,10.79,0,1,0,282,91.2a10.79,10.79,0,0,0-10.84-10.79Zm0,15.1a4.32,4.32,0,1,1,4.32-4.32h0a4.31,4.31,0,0,1-4.31,4.31Z"/><line class="cls-1" x1="208.77" y1="113.3" x2="208.77" y2="143.3"/><line class="cls-1" x1="270.77" y1="113.3" x2="270.77" y2="143.3"/><path d="M91.77.55a76.75,76.75,0,0,0,0,153.5Z"/><path d="M99.77,54.12V103.3a4,4,0,0,1-8,0v-50h-1V154.05a50.37,50.37,0,0,0,9-99.93Z"/><path d="M348.77.55a76.75,76.75,0,0,1,0,153.5Z"/><path d="M348.77,53.33v50a4,4,0,0,1-8,0V54.12a50.37,50.37,0,0,0,9,99.93V53.3Z"/><circle cx="99.77" cy="275.3" r="7"/><circle cx="81.27" cy="276.8" r="5.5"/><circle cx="66.27" cy="277.8" r="4.5"/></g><g id="Layer_5" data-name="Layer 5"><path d="M326.77,153.8v.5a102,102,0,1,1-204,0v-.5h-31a128.5,128.5,0,0,0,257,0Z"/><path d="M323.77,153.8H300.11v.5a65.35,65.35,0,0,1-130.69,1.62q0-.81,0-1.62v-.5H125.78v.5a99,99,0,1,0,198,0Z"/><path d="M206.77,154.3a33,33,0,1,0,66,0v-.5h-66C206.78,154,206.77,154.14,206.77,154.3Z"/><path d="M297.11,153.8H275.76v.5a36,36,0,0,1-72,0v-.5H172.44v.5a62.35,62.35,0,0,0,124.69,1.58c0-.53,0-1,0-1.58C297.12,154.14,297.11,154,297.11,153.8Z"/></g></svg>